<svg xmlns="http://www.w3.org/2000/svg" id="_Ñëîé_1" data-name="Ñëîé 1" version="1.1" viewBox="0 0 5000 5000">
  <defs>
    <style>
      .cls-1 {
        fill: #333;
        stroke-width: 0px;
      }
    </style>
  </defs>
  <polygon class="cls-1" points="2758.92 2757.49 3199.85 3105.52 2851.8 2664.58 2768.71 2674.36 2758.92 2757.49"/>
  <polygon class="cls-1" points="2419.28 2232.11 1978.61 1884.28 2326.43 2324.94 2409.5 2315.15 2419.28 2232.11"/>
  <polygon class="cls-1" points="2326.64 2664.6 1978.61 3105.52 2419.31 2757.66 2409.5 2674.36 2326.64 2664.6"/>
  <polygon class="cls-1" points="2852.01 2324.96 3199.85 1884.28 2758.95 2232.29 2768.71 2315.15 2852.01 2324.96"/>
  <path class="cls-1" d="M1522.98,2569.98l-67.2-7.91c7.53,129.36,36.77,254.97,87.22,374.25,28.45,67.25,63.65,132.12,104.64,192.79,40.59,60.09,87.21,116.59,138.56,167.94,51.35,51.35,107.85,97.97,167.94,138.56,60.67,40.99,125.53,76.2,192.79,104.64,119.45,50.53,245.25,79.77,374.8,87.25l-7.91-67.19c-529.38-36.82-953.74-461.02-990.84-990.32Z"/>
  <path class="cls-1" d="M2664.4,3560.24l-7.91,67.21c129.25-7.56,254.75-36.79,373.94-87.21,67.25-28.45,132.12-63.65,192.79-104.64,60.09-40.59,116.59-87.21,167.94-138.56,51.35-51.35,97.97-107.85,138.56-167.94,40.99-60.67,76.2-125.54,104.64-192.79,50.44-119.25,79.67-244.82,87.22-374.15l-67.2,7.91c-37.12,528.97-461.03,952.94-989.97,990.16Z"/>
  <path class="cls-1" d="M2513.86,1428.82l7.91-67.19c-129.57,7.48-255.38,36.72-374.85,87.26-67.25,28.45-132.12,63.65-192.79,104.64-60.09,40.59-116.59,87.21-167.94,138.56-51.35,51.35-97.97,107.85-138.56,167.94-40.99,60.67-76.2,125.53-104.64,192.79-50.5,119.41-79.75,245.14-87.24,374.64l67.2-7.91c36.91-529.5,461.38-953.91,990.91-990.72Z"/>
  <path class="cls-1" d="M3654.4,2419.44l67.2,7.91c-7.51-129.46-36.75-255.17-87.24-374.54-28.45-67.25-63.65-132.12-104.64-192.79-40.59-60.09-87.21-116.59-138.56-167.94-51.35-51.35-107.85-97.96-167.94-138.56-60.67-40.99-125.53-76.2-192.79-104.64-119.2-50.42-244.72-79.65-373.99-87.21l7.91,67.21c529.09,37.21,953.1,461.39,990.04,990.56Z"/>
  <polygon class="cls-1" points="4065.02 2494.56 3722.42 2454.22 3722.42 2454.22 3655.51 2446.34 3655.51 2446.34 2849.5 2351.45 2744.19 2339.05 2731.79 2233.73 2633.82 1401.61 2628.94 1360.21 2628.94 1360.21 2588.67 1018.22 2548.41 1360.18 2548.41 1360.18 2543.76 1399.71 2445.57 2233.61 2433.16 2339.05 2328.01 2351.43 1520.97 2446.45 1520.97 2446.45 1496.39 2449.34 1112.33 2494.56 1454.08 2534.8 1454.08 2534.8 1520.99 2542.68 1520.99 2542.68 2327.88 2637.68 2433.16 2650.07 2445.56 2755.35 2588.67 3970.9 2635.47 3573.48 2636.87 3561.61 2636.87 3561.61 2731.81 2755.23 2744.19 2650.07 2849.63 2637.66 3655.5 2542.78 3655.5 2542.78 3722.41 2534.9 3722.41 2534.9 4065.02 2494.56"/>
  <path class="cls-1" d="M2435.71,647.04h92.05l120.12,176.49v-176.49h92.92v319.01h-92.92l-119.47-175.16v175.16h-92.7v-319.01Z"/>
  <path class="cls-1" d="M2443.97,4241.98l93.79-5.88c2.03,15.23,6.16,26.84,12.4,34.82,10.15,12.91,24.66,19.37,43.52,19.37,14.07,0,24.92-3.3,32.53-9.9,7.62-6.6,11.42-14.25,11.42-22.96s-3.63-15.67-10.88-22.2c-7.26-6.53-24.08-12.69-50.48-18.5-43.23-9.72-74.06-22.63-92.48-38.73-18.57-16.1-27.85-36.63-27.85-61.58,0-16.39,4.75-31.88,14.25-46.46,9.5-14.58,23.79-26.04,42.87-34.38,19.07-8.34,45.22-12.51,78.45-12.51,40.76,0,71.84,7.58,93.24,22.74,21.4,15.16,34.13,39.28,38.19,72.35l-92.92,5.44c-2.47-14.36-7.65-24.81-15.56-31.34-7.91-6.53-18.82-9.79-32.75-9.79-11.46,0-20.09,2.43-25.9,7.29-5.8,4.86-8.7,10.77-8.7,17.74,0,5.08,2.39,9.65,7.18,13.71,4.64,4.21,15.67,8.13,33.08,11.75,43.09,9.29,73.95,18.68,92.59,28.18,18.64,9.5,32.21,21.29,40.69,35.36,8.49,14.07,12.73,29.81,12.73,47.22,0,20.45-5.66,39.32-16.97,56.58-11.32,17.27-27.13,30.36-47.44,39.28-20.31,8.92-45.91,13.38-76.81,13.38-54.26,0-91.83-10.44-112.72-31.34-20.89-20.89-32.72-47.44-35.47-79.64Z"/>
  <path class="cls-1" d="M613.86,2335.05h93.63l33.71,178.59,49.34-178.59h93.29l49.46,178.35,33.75-178.35h93.14l-70.32,319.01h-96.66l-55.95-200.85-55.73,200.85h-96.66l-70.97-319.01Z"/>
  <path class="cls-1" d="M4117.18,2335.05h264.17v68.11h-165.38v50.7h153.41v65.06h-153.41v62.89h170.17v72.25h-268.96v-319.01Z"/>
</svg>