<svg xmlns="http://www.w3.org/2000/svg" version="1.1" viewBox="0 0 455.86 174.83">
  <defs>
    <style>
      .cls-1 {
        fill: #49b4b7;
      }

      .cls-2 {
        fill: #0a71b3;
      }

      .cls-3 {
        fill: #0f3d61;
      }

      .cls-4 {
        fill: #e85e55;
      }
    </style>
  </defs>
  <!-- Generator: Adobe Illustrator 28.7.1, SVG Export Plug-In . SVG Version: 1.2.0 Build 142)  -->
  <g>
    <g id="Layer_1">
      <g>
        <g>
          <path class="cls-3" d="M340.42,126.42v-.31h.48c.77,0,.81-.66.81-1.35v-8.82c0-.71-.09-1.27-.81-1.33l-.48-.04v-.37h9.59l.17,2.97h-.23c-.17-.79-.37-1.16-.56-1.43-.52-.75-1.18-.9-1.93-.9h-3.08v4.78h2.27c.67,0,1.19-.14,1.29-.83l.08-.54h.4v3.64h-.4l-.06-.64c-.08-.85-.64-1.08-1.31-1.08h-2.27v4.31c0,.94.31,1.25,1.23,1.25h1.93c.83,0,1.41-.15,1.91-.75.31-.35.56-.85.85-1.54h.19l-.38,2.97h-9.69Z"/>
          <path class="cls-3" d="M362.02,123.93c.66,1.49.96,2,2.22,2.22v.26h-6.97v-.26c1.86-.26,2.49-.88,1.96-2.08l-.65-1.49h-4.15l-.53,1.24c-.69,1.63-.32,2.08,1.96,2.33v.26h-4.85v-.26c1.4-.19,1.74-.81,2.38-2.33l4.13-9.84h.07l4.41,9.95ZM354.61,122.14h3.78l-1.68-3.91-.25-.53-1.85,4.43Z"/>
          <path class="cls-3" d="M369.06,126.67c-1.3,0-2.76-.37-3.92-1.05v-3.56h.26c.79,3.11,2.31,4.19,3.79,4.19,1.37,0,2.35-.87,2.35-2.06,0-.98-.62-1.59-1.9-2.18l-2.03-.96c-1.58-.73-2.39-1.83-2.39-3.33,0-1.97,1.92-3.63,4.64-3.63,1.28,0,2.5.28,3.42.7v3.47h-.26c-.58-2.65-1.67-3.75-3.34-3.75-1.35,0-2.33.8-2.33,1.94,0,.98.56,1.59,1.76,2.15l2.1.98c1.63.77,2.52,1.83,2.52,3.33,0,2.2-1.99,3.77-4.68,3.77h0Z"/>
          <path class="cls-3" d="M377.13,126.15c1.28-.11,1.8-.46,1.8-1.91v-9.66h-.32c-2.26,0-3.28,1.21-3.56,3.52h-.28v-3.87h10.74v3.87h-.28c-.28-2.31-1.31-3.52-3.56-3.52h-.32v9.66c0,1.45.51,1.8,1.79,1.91v.26h-6.03v-.26Z"/>
          <path class="cls-3" d="M397.13,126.71c-4.1,0-6.41-2.43-6.41-6.34s2.64-6.28,6.53-6.28c1.43,0,2.83.27,3.93.81l.29,3.28h-.29c-.1-.6-.71-1.68-1.08-2.12-.77-.96-1.77-1.5-2.73-1.5-2.29,0-3.8,2.66-3.8,5.82,0,2.99,1.64,5.74,4.06,5.74.64,0,1.23-.17,1.5-.48v-3.04c0-.67-.15-1.19-.92-1.35l-.48-.1v-.23h4.99v.23l-.29.15c-.37.2-.62.37-.62.98v2.97c-1.16.79-2.75,1.46-4.68,1.46h0Z"/>
          <path class="cls-3" d="M413.72,123.93c.66,1.49.96,2,2.22,2.22v.26h-6.97v-.26c1.86-.26,2.49-.88,1.96-2.08l-.65-1.49h-4.15l-.53,1.24c-.69,1.63-.32,2.08,1.96,2.33v.26h-4.85v-.26c1.4-.19,1.74-.81,2.38-2.33l4.13-9.84h.07l4.41,9.95ZM406.31,122.14h3.78l-1.68-3.91-.25-.53-1.85,4.43Z"/>
          <path class="cls-3" d="M418.56,126.15c1.28-.11,1.8-.46,1.8-1.91v-9.66h-.32c-2.26,0-3.28,1.21-3.56,3.52h-.28v-3.87h10.74v3.87h-.28c-.28-2.31-1.31-3.52-3.56-3.52h-.32v9.66c0,1.45.51,1.8,1.79,1.91v.26h-6.03v-.26Z"/>
          <path class="cls-3" d="M428.35,126.42v-.31h.48c.77,0,.81-.66.81-1.35v-8.82c0-.71-.09-1.27-.81-1.33l-.48-.04v-.37h9.59l.17,2.97h-.23c-.17-.79-.37-1.16-.56-1.43-.52-.75-1.17-.9-1.93-.9h-3.08v4.78h2.27c.67,0,1.19-.14,1.29-.83l.08-.54h.4v3.64h-.4l-.06-.64c-.08-.85-.64-1.08-1.31-1.08h-2.27v4.31c0,.94.31,1.25,1.23,1.25h1.93c.83,0,1.41-.15,1.91-.75.31-.35.56-.85.85-1.54h.19l-.38,2.97h-9.69Z"/>
          <path class="cls-3" d="M350.38,145.29c.66,1.49.96,2,2.22,2.22v.26h-6.97v-.26c1.86-.26,2.49-.88,1.96-2.08l-.65-1.49h-4.15l-.53,1.24c-.69,1.63-.32,2.08,1.96,2.33v.26h-4.85v-.26c1.4-.19,1.74-.81,2.38-2.33l4.13-9.84h.07l4.41,9.95ZM342.97,143.5h3.78l-1.68-3.91-.25-.53-1.85,4.43Z"/>
          <path class="cls-3" d="M359.31,148.03c-3.06,0-4.97-1.97-4.97-5.25v-4.99c0-1.46-.35-1.76-1.34-1.93v-.26h5.46v.26c-1.3.08-1.66.48-1.66,1.93v4.83c0,2.46,1.11,4.09,3.39,4.09,1.9,0,3.41-1.23,3.41-4.06v-4.87c0-1.46-.42-1.83-2.06-1.93v-.26h3.81v.26c-1.28.15-1.31.47-1.31,1.93v4.94c0,3.18-1.69,5.31-4.73,5.31h0Z"/>
          <path class="cls-3" d="M377.58,145.56c-1.42,1.63-2.92,2.41-4.92,2.41-3.17,0-5.99-2.3-5.99-6.07,0-4.13,2.46-6.45,6.51-6.45,1.22,0,2.88.34,3.99.81l.19,2.69h-.26c-.42-.86-.8-1.46-1.09-1.78-.83-.94-1.79-1.34-2.83-1.34-2.06,0-3.66,2.47-3.66,5.91s1.51,5.32,3.85,5.32c1.1,0,2.65-.56,3.82-1.83l.38.32Z"/>
          <path class="cls-3" d="M381.15,147.51c1.28-.11,1.8-.46,1.8-1.91v-9.66h-.32c-2.26,0-3.28,1.21-3.56,3.52h-.28v-3.87h10.74v3.87h-.28c-.28-2.31-1.31-3.52-3.56-3.52h-.32v9.66c0,1.45.51,1.8,1.79,1.91v.26h-6.03v-.26Z"/>
          <path class="cls-3" d="M390.95,147.77v-.33l.48-.08c.7-.11.81-.62.81-1.29v-8.82c0-.67-.11-1.18-.81-1.29l-.48-.08v-.33h5.3v.33l-.5.08c-.72.11-.83.64-.83,1.29v8.82c0,.65.1,1.18.83,1.29l.5.08v.33h-5.3Z"/>
          <path class="cls-3" d="M397.81,141.69c0-3.55,2.6-6.26,6.01-6.26,3.8,0,6.01,2.29,6.01,6.26,0,3.62-2.56,6.3-6.01,6.3-3.81,0-6.01-2.29-6.01-6.3ZM406.95,141.71c0-3.04-1.31-5.82-3.14-5.82s-3.16,2.77-3.16,5.82,1.31,5.88,3.16,5.88,3.14-2.85,3.14-5.88Z"/>
          <path class="cls-3" d="M411.09,147.53c1.67-.11,2.06-.48,2.06-1.94v-8.32c0-.33-.16-.62-.43-.79l-1.33-.65v-.26h3.54l6.35,7.72h.07v-5.52c0-1.46-.42-1.83-2.06-1.94v-.26h4.17v.26c-1.25.11-1.67.48-1.67,1.94v10.26h-.05l-8.08-9.77h-.05v7.34c0,1.46.41,1.83,1.48,1.94v.26h-4v-.26Z"/>
        </g>
        <g>
          <polygon class="cls-1" points="384.19 57 384.96 68.03 389.18 74.1 394.79 72.16 398.12 68.14 393.49 61.42 384.19 57"/>
          <polygon class="cls-1" points="371.55 68.59 372.49 77.14 377.5 78.12 382.58 76.22 382.08 69.04 375.7 59.85 371.55 68.59"/>
          <polygon class="cls-4" points="389.82 50.9 395.47 59.1 402.79 62.57 406.27 58.71 406.27 58.71 389.82 50.9 389.82 50.9"/>
          <polygon class="cls-2" points="378.36 54.24 377.15 56.79 381.68 63.3 381.14 55.56 378.36 54.24"/>
          <polygon class="cls-2" points="383.95 53.63 390.16 56.58 386.44 51.17 383.79 51.37 383.95 53.63"/>
          <polygon class="cls-4" points="383.92 11.62 389.22 12.48 393.23 16.04 389.67 23.54 381.44 28.86 380.37 19.12 383.92 11.62"/>
          <polygon class="cls-1" points="390.99 42.68 400.01 36.3 407.38 35.73 409.43 41.31 408.43 46.43 400.29 47.09 390.99 42.68"/>
          <polygon class="cls-1" points="391.97 25.55 399.19 20.88 403.12 24.14 404.86 29.28 398.98 33.43 387.83 34.29 391.97 25.55"/>
          <polygon class="cls-1" points="350.77 19.07 354.1 15.05 359.72 13.11 363.94 19.18 364.71 30.2 355.4 25.79 350.77 19.07"/>
          <polygon class="cls-4" points="389.82 50.9 399.74 50.09 407.07 53.57 406.27 58.71 406.27 58.71 389.82 50.9 389.82 50.9"/>
          <polygon class="cls-2" points="385.16 39.91 386.37 37.36 394.28 36.75 387.94 41.23 385.16 39.91"/>
          <polygon class="cls-2" points="367.22 23.9 371.74 30.42 370.53 32.97 367.76 31.65 367.22 23.9"/>
          <polygon class="cls-2" points="388.23 44.62 394.43 47.57 387.89 48.1 386.38 45.93 388.23 44.62"/>
          <polygon class="cls-1" points="377.35 18.61 373.2 27.35 366.82 18.17 366.32 10.99 371.4 9.08 376.4 10.07 377.35 18.61"/>
          <polygon class="cls-2" points="375.14 30.14 377.96 24.18 378.68 30.67 376.54 32.16 375.14 30.14"/>
          <polygon class="cls-2" points="384.44 34.56 381.99 34.75 381.79 32.14 387.27 28.6 384.44 34.56"/>
        </g>
        <g>
          <g>
            <polygon class="cls-3" points="269.56 38.63 270.94 34.97 322.42 17.1 322.42 17.69 320.33 21.74 269.56 38.89 269.56 38.63"/>
            <path class="cls-3" d="M212.57,32.37l-1.08.03-3.41,8.3c4.69,3.14,14.26,9.56,14.26,14.17,0,2.9-6.99,3.74-11.16,3.83-6.32.24-11.55-1.23-11.55-6.01,0-.75.13-1.59.4-2.51l-.77-.11c-1.07,2.35-1.69,5.79-1.61,8.99.2,6.31,4.43,9.69,11.99,9.69h0c9.79,0,14.57-4.57,14.57-13.78,0-6.43-2.37-13.99-11.66-22.6Z"/>
            <polygon class="cls-3" points="259.48 31.02 252.11 24.42 246.44 30.77 253.81 37.37 259.48 31.02"/>
            <polygon class="cls-3" points="233.44 68.04 231.94 16.92 236.61 6.69 237.69 6.69 237.66 54.17 233.77 68.04 233.44 68.04"/>
            <path class="cls-3" d="M227.85,81.04l-.09.62,9.31,4.98c4.44,2.38,9.94.99,12.73-3.21,2.97-4.48,6.29-10.6,7.85-17.05-2.14,2.9-11.5,14.02-29.8,14.65Z"/>
            <path class="cls-3" d="M356.3,44.8c-2.25-4.86-6.19-8.01-10.05-8.01-9.17,0-12.71,14.75-12.74,14.9l-.02.1s-.06.09-.06.09c-2.49,3.7-6.93,4.07-10.94,4.47-7.95.8-15.8,2.56-23.85,3.06-7.7.48-15.44.36-23.12-.37-5.01-.47-12.29-.47-15.98-4.45-1.9-2.05-2.72-4.87-3.62-7.44-.65-1.88-1.27-3.66-2.18-4.99h-1.38l-4.29,9.83c.61.88,2.61,3.8,4.6,6.89,1.74,2.69,3.65,5.52,6.53,7.09,2.75,1.49,5.98,1.81,9.05,2.03,8.99.65,18.03.71,27.03.23,8.09-.43,16.2-1.22,24.13-2.95.01,0,.03,0,.04,0,3.04-.67,5.89-2.07,8.26-4.08,1.19-1.01,2.46-2.25,3.6-3.69l1.53.74-1.5,4.19c9.38,6.31,18.64,7.4,20.38,7.55,9.66-11.53,5.94-22.15,4.56-25.15ZM333.74,52.77l.24-.51c2.42-5.05,6.08-5.6,7.54-5.6,11.6,0,14.51,12.62,14.54,12.74l.19.87-.88-.15c-.13-.02-12.4-2.14-21.15-7.08l-.49-.27Z"/>
          </g>
          <g>
            <polygon class="cls-3" points="41.82 114.11 47.13 118.88 51.42 114.1 45.86 109.1 41.96 113.45 36.65 108.68 32.35 113.46 37.91 118.46 41.82 114.11"/>
            <path class="cls-3" d="M53.49,142.91v-.07c-.03-9.77-3.11-19.97-10.1-19.97-6.42,0-10.79,7.47-10.79,14.91s4.12,9.69,8.61,9.69c3.98,0,8.24-1.96,10.18-7.96.76,1.34,1.12,2.82,1.13,3.79h0c0,9.92-9.49,12.29-17.59,12.29-11.02,0-15.73-3.41-15.73-11.43,0-3.11.8-6.59,2.36-10.24l-1.16.1c-1.93,4.74-2.96,9.65-2.96,14.17,0,10.06,5.08,18.19,16.6,18.19s19.4-6.67,19.45-23.4v-.07ZM41.65,140.06c-3.34,0-7.14-1.21-7.14-3.34,0-1.61,2.09-5.05,6.01-5.05,3.56,0,7.02,2.22,9.29,5.76-2.25,1.81-5.39,2.63-8.15,2.63Z"/>
            <rect class="cls-3" x="107.21" y="101.95" width="6.93" height="8.05" transform="translate(-42.13 117.45) rotate(-48.05)"/>
            <polygon class="cls-3" points="111.24 115.88 116.97 121.02 121.59 115.87 115.6 110.49 111.4 115.18 105.67 110.03 101.05 115.19 107.04 120.57 111.24 115.88"/>
            <polygon class="cls-3" points="189.31 97.95 195.03 103.1 199.66 97.94 193.67 92.56 189.46 97.25 183.74 92.11 179.11 97.26 185.1 102.64 189.31 97.95"/>
            <rect class="cls-3" x="247.62" y="153.37" width="6.93" height="8.05" transform="translate(-33.82 238.91) rotate(-48.05)"/>
            <path class="cls-3" d="M271.84,91.8h-.85l-4.69,7.1v33.84c0,5.04-.08,10.08-1.21,15.12h.65c2.41-4.61,6.1-10.52,6.1-21.45v-34.61Z"/>
            <rect class="cls-3" x="316.91" y="153.37" width="6.93" height="8.05" transform="translate(-10.85 290.45) rotate(-48.05)"/>
            <path class="cls-3" d="M325.74,116.78h-1.21s-4.18,9.31-4.18,9.31c2.1,1.91,7.08,6.2,7.08,8.02,0,1.3-8.02,6.41-13.92,6.31-10.94-.18-12.18-.23-12.18-.23-.98-9.33-4.6-21.9-11.22-21.9-7.25,0-12.19,9.48-12.19,17.88s4.66,11.68,9.73,11.68h29.05v-.03c9.46-.23,13-6.93,13-14.8,0-5.34-1.45-11.31-3.95-16.24ZM288.44,139.44c-3.78,0-8.36-2.65-8.36-4.83,0-1.81,2.36-5.35,6.79-5.35s9.64,6.28,12.19,10.66l-10.61-.48Z"/>
            <path class="cls-3" d="M152.36,99.25v-6.27h-1.44c-.81.41-6.06,3.32-6.06,8.41,0,3.14,1.57,5.64,2.89,7.18l.12.14,1.74,27.04s-.31.16-.31.16c-2.01,1.01-3.79,2.42-6,2.97-3.41.84-6.5-.15-9.46-1.85-1.83-1.05-4.07-2.68-4.07-5.02v-2.92h-1.06c0,5.08.15,9.86-2.27,9.86s-11.98-2.35-11.83-3.94c.23-2.2.38-2.88.45-5.46h-.81c-.6,6.59-3.58,8.48-8.27,8.49-4.37,0-7.83-.61-7.53-1.67.61-2.2,1.06-4.32,1.14-6.9h-.83c-.68,7.66-6.89,8.21-12.59,8.22-.04,0-.07,0-.11,0v-.06l-.11.06c-3.49-.04-5.59-.8-7.28-2.58-.97-1.61-1.62-3.45-2.23-5.2-.61-1.74-1.18-3.39-2.02-4.63h-1.28l-3.97,9.1c.56.81,2.41,3.52,4.27,6.38,1.33,2.05,2.8,4.19,4.83,5.74l.33.25.35.23c1.95,1.28,4.19,1.9,6.83,1.9,5.89,0,10.76-2.4,11.63-2.85,0-.01.02-.04.02-.05,2.1,2.23,4.7,3.13,6.62,3.13,3.06,0,6.88-1.05,8.66-5.66,2.52,4.16,6.59,5.66,9.67,5.66s4.86-1.91,6.08-4.83c1.55,2.57,4.48,4.83,10.62,4.82,2.36,0,4.8-.57,6.86-1.8,1.05-.63,4.95-4.41,5.34-4.92.37-.5.47-1.25.57-1.84.24-1.46.27-2.96.29-4.44,0-.34,0-.69,0-1.03v-24.8l5.42-3.81-5.23-7.17Z"/>
            <path class="cls-3" d="M50.88,161.88l-.08.58,8.63,4.62c4.11,2.2,9.21.92,11.79-2.97,2.75-4.15,5.82-9.82,7.28-15.79-1.98,2.69-10.65,12.99-27.61,13.57Z"/>
            <path class="cls-3" d="M270.87,161.88l-.08.58,8.63,4.62c4.11,2.2,9.21.92,11.79-2.97,2.75-4.15,5.82-9.82,7.28-15.79-1.98,2.69-10.65,12.99-27.61,13.57Z"/>
            <path class="cls-3" d="M260.25,134.73c.23-.73.23-1.53.19-2.3-.23-4.92-1.36-9.81-3.32-14.33-.34-.8-1.14-1.73-1.88-1.29-1.39,3.09-2.77,6.18-4.16,9.27,2.14,1.83,4.14,3.83,5.99,5.96-14.29,7.64-31.53,8.89-47.28,5.08-1.74-.42-3.49-.91-4.98-1.9-1.42-.94-2.54-2.31-3.19-3.88-.85-2.07-.86-4.37-.86-6.61,0-6.43.02-12.86.03-19.29-2.69,1.6-4.47,4.63-4.56,7.76,0,.23-6.45,2.45-7.11,2.75-2.42,1.11-4.77,2.38-7.03,3.8-4.03,2.53-6.82,6.82-6.57,11.74.2,3.9,2.66,7.73,6.33,9.07,2.83,1.03,6.08.54,8.74-.88s4.79-3.69,6.49-6.18c-.8,3.71,1.4,7.57,4.51,9.75,3.11,2.18,6.96,2.98,10.73,3.47,15.75,2.06,32.47-.6,45.65-9.48.84-.57,1.7-1.19,2.13-2.11.06-.13.12-.27.16-.41ZM196.26,128.58c-.08,3.2-18.48,2.84-18.48-.55h0c0-1.15,7.15-4.99,18.48-8.34v8.89Z"/>
            <polygon class="cls-3" points="210.67 125.39 211.61 121.73 246.7 103.86 246.7 104.44 245.28 108.49 210.67 125.65 210.67 125.39"/>
            <polygon class="cls-3" points="97.96 97.97 98.9 94.31 134 76.44 134 77.03 132.57 81.08 97.96 98.23 97.96 97.97"/>
            <polygon class="cls-3" points="162.08 149.83 160.67 101.82 165.06 92.22 166.07 92.22 166.04 136.81 162.39 149.83 162.08 149.83"/>
            <path class="cls-3" d="M60.49,101.38c0-3.79,2.55-7.53,5.64-7.53,3.25,0,5.65,3.59,5.65,7.53,0,3.61-1.94,6.19-5.65,6.19s-5.64-2.5-5.64-6.19ZM66.13,103.55c2.08,0,5.19-2.17,5.19-2.17,0,0-3.11-2.83-5.19-2.83-2.29,0-5.04,2.83-5.04,2.83,0,0,3.05,2.17,5.04,2.17h0Z"/>
          </g>
        </g>
      </g>
    </g>
  </g>
</svg>