<svg xmlns="http://www.w3.org/2000/svg" version="1.1" viewBox="0 0 1016.32 519.86">
  <defs>
    <style>
      .cls-1 {
        fill: #123254;
      }

      .cls-2 {
        fill: #c49756;
      }

      .cls-3 {
        fill: #0f3d61;
        font-family: FSAlbertArabicWeb-ExtraBold, 'FS Albert Arabic Web';
        font-size: 81.61px;
        font-weight: 700;
      }
    </style>
  </defs>
  <!-- Generator: Adobe Illustrator 28.7.1, SVG Export Plug-In . SVG Version: 1.2.0 Build 142)  -->
  <g>
    <g id="Layer_1">
      <g>
        <text class="cls-3" transform="translate(1.43 212.44)"><tspan x="0" y="0">شـــــركـــــة نــــــــــزل</tspan><tspan x="3.59" y="119.27">السعودية للعقارات</tspan></text>
        <g>
          <path class="cls-2" d="M740.99,350.73l36.17-48.58s6.84-6.28,18.62,10.81c11.78,17.08,51.51,90.75,82.04,50.57l-145.94-208.07,40.88-53.9s-7.67,12.46.71,24.35c6.9,9.8,127.33,180.95,127.33,180.95,11.44,16.31,4.32,24.18,4.32,24.18l-63.1,85.82s-18.1,20.11-39-8.94c-20.89-29.06-41.07-62.08-62.04-57.19Z"/>
          <path class="cls-2" d="M978.09,117.92l-35.58,47.62s-6.57,7.08-18.35-10.01c-11.78-17.08-48.94-89.26-79.48-49.08l110.53,157.12-41.56,56.59s7.65-13.92-.73-25.81c-8.38-11.9-101.42-146.54-101.42-146.54l68.59-94.03s15.93-22.28,36.83,6.77c20.89,29.06,40.21,62.26,61.17,57.37Z"/>
          <polygon class="cls-2" points="779.17 93.07 803.35 59.79 828.98 95.63 804.32 128.91 779.17 93.07"/>
          <polygon class="cls-2" points="813.76 46.95 837.94 13.67 863.57 49.51 838.92 82.79 813.76 46.95"/>
          <g>
            <path class="cls-1" d="M705.21,464.78h3.81l26.51,29.58h.26v-29.58h3v41.42h-1.58l-28.71-32.9h-.23v31.93h-3.06v-40.45Z"/>
            <path class="cls-1" d="M789.31,506.19c-2.09,0-4.09-.26-6-.77-1.91-.52-3.7-1.23-5.35-2.16-1.66-.92-3.16-2.04-4.52-3.35-1.36-1.31-2.51-2.76-3.47-4.34-.96-1.58-1.69-3.28-2.21-5.11-.52-1.83-.77-3.72-.77-5.68,0-2.9.58-5.62,1.73-8.16,1.15-2.54,2.73-4.75,4.73-6.65,2-1.89,4.36-3.38,7.08-4.47,2.72-1.09,5.65-1.63,8.79-1.63,2.09,0,4.09.25,6,.74,1.91.49,3.69,1.19,5.34,2.1,1.65.9,3.14,1.99,4.5,3.26,1.36,1.27,2.51,2.68,3.47,4.23.96,1.55,1.69,3.21,2.21,5,.52,1.79.77,3.64.77,5.58s-.26,3.85-.77,5.68c-.52,1.83-1.25,3.53-2.21,5.11-.96,1.58-2.11,3.03-3.47,4.34-1.35,1.31-2.85,2.43-4.5,3.35-1.65.93-3.42,1.64-5.34,2.16-1.91.52-3.91.77-6,.77ZM789.31,504.16c2.3,0,4.34-.48,6.11-1.45,1.77-.97,3.27-2.32,4.48-4.05,1.21-1.73,2.13-3.78,2.76-6.14.62-2.37.94-4.95.94-7.74s-.31-5.32-.94-7.63c-.62-2.31-1.54-4.31-2.76-5.98-1.21-1.68-2.71-2.98-4.48-3.9-1.77-.92-3.81-1.39-6.11-1.39s-4.44.46-6.23,1.39c-1.79.93-3.28,2.23-4.48,3.9-1.21,1.68-2.11,3.67-2.73,5.98-.61,2.31-.92,4.85-.92,7.63s.31,5.38.92,7.74c.61,2.37,1.52,4.41,2.73,6.14,1.2,1.73,2.7,3.08,4.48,4.05,1.78.97,3.86,1.45,6.23,1.45Z"/>
            <path class="cls-1" d="M873.71,464.78l-29.26,37.83h29.26v2.61h-38.42v-1l28.39-36.84h-28.39v-2.61h38.42Z"/>
            <path class="cls-1" d="M898.27,464.78h6.81v26.26c0,1.72.3,3.34.89,4.85.59,1.52,1.44,2.84,2.53,3.98,1.1,1.14,2.42,2.04,3.97,2.71,1.55.67,3.28,1,5.19,1s3.68-.33,5.23-1c1.55-.67,2.86-1.57,3.95-2.71,1.09-1.14,1.92-2.47,2.5-3.98.58-1.52.87-3.13.87-4.85v-26.26h3v26.26c0,2.06-.33,4.02-1,5.85-.67,1.84-1.72,3.45-3.16,4.82-1.44,1.38-3.28,2.47-5.52,3.27-2.24.81-4.91,1.21-8.03,1.21-2.8,0-5.27-.4-7.42-1.21-2.15-.81-3.95-1.9-5.4-3.29-1.45-1.39-2.55-3.01-3.29-4.87-.74-1.86-1.11-3.84-1.11-5.95v-26.09Z"/>
            <path class="cls-1" d="M962.44,464.78h6.81v37.83h20.35v2.61h-27.16v-40.45Z"/>
          </g>
        </g>
      </g>
    </g>
  </g>
</svg>